<svg width="18" height="18" viewBox="0 0 18 18" fill="none" xmlns="http://www.w3.org/2000/svg">
<path d="M9 0.5625C4.34784 0.5625 0.5625 4.34784 0.5625 9C0.5625 13.6527 4.34784 17.4375 9 17.4375C13.6524 17.4375 17.4375 13.6527 17.4375 9C17.4375 4.34784 13.6527 0.5625 9 0.5625ZM14.6382 13.5574C14.3051 13.2554 13.9484 12.9805 13.5714 12.7353C14.044 11.7798 14.3314 10.7436 14.4186 9.68119H16.2214C16.088 11.1012 15.5371 12.45 14.6382 13.5574ZM1.77919 9.68119H3.55022C3.63807 10.7493 3.92812 11.791 4.40494 12.7507C4.03687 12.9922 3.6881 13.2619 3.36178 13.5574C2.46282 12.4501 1.9121 11.1012 1.77919 9.68119ZM3.36178 4.44291C3.68775 4.73871 4.03655 5.00833 4.40494 5.24925C3.90106 6.2627 3.60609 7.36712 3.53756 8.49684H1.76428C1.86656 7.01325 2.42447 5.59744 3.36178 4.44291ZM8.40797 2.68847V5.40197C7.59527 5.33809 6.79944 5.13597 6.05475 4.80431C6.67411 3.93465 7.47759 3.21222 8.40797 2.68847ZM8.40797 6.58912V8.49684H4.72416C4.78923 7.56924 5.03345 6.66303 5.44331 5.82834C6.37617 6.26258 7.38129 6.52051 8.40797 6.58912ZM8.40797 9.68119V11.4109C7.37781 11.48 6.36942 11.7396 5.43403 12.1767C5.05395 11.3935 4.81833 10.5481 4.7385 9.68119H8.40797ZM8.40797 12.5986V15.3177C7.47126 14.7979 6.66286 14.075 6.04209 13.2019C6.79031 12.8667 7.59059 12.6626 8.40797 12.5986ZM9.59203 15.293V12.5986C10.4062 12.6633 11.1901 12.8624 11.9199 13.1847C11.3067 14.0486 10.5123 14.7681 9.59203 15.293ZM9.59203 11.4109V9.68119H13.2297C13.1474 10.5427 12.9104 11.3822 12.53 12.1596C11.6045 11.7328 10.6088 11.4791 9.59203 11.4109ZM9.59203 8.49684V6.58912C10.6093 6.52125 11.6056 6.2675 12.5314 5.84044C12.9375 6.67186 13.1796 7.57378 13.2443 8.49684H9.59203ZM9.59203 5.40197V2.70647C10.5129 3.23111 11.308 3.95064 11.9216 4.81472C11.1837 5.14032 10.3961 5.33887 9.59203 5.40197ZM12.5249 3.64669C11.9692 2.97439 11.3129 2.39207 10.5792 1.92037C11.7838 2.18989 12.8995 2.76305 13.8201 3.58538C13.554 3.8249 13.2705 4.04422 12.9718 4.24153C12.8321 4.03648 12.6829 3.83799 12.5249 3.64669ZM5.44359 3.64697C5.28942 3.8339 5.1435 4.02749 5.00625 4.22719C4.71565 4.0335 4.4394 3.8191 4.17966 3.58566C5.08809 2.77431 6.1865 2.20522 7.37325 1.93106C6.64586 2.40071 5.99503 2.97944 5.44359 3.64697ZM5.00653 13.7731C5.12128 13.9402 5.24222 14.1033 5.36962 14.2619C5.93677 14.9681 6.61375 15.5785 7.37466 16.0698C6.18744 15.7958 5.08859 15.2266 4.17994 14.4149C4.43959 14.1813 4.71585 13.9668 5.00653 13.7731ZM12.5364 14.3393C12.6901 14.1521 12.8356 13.9584 12.9727 13.7587C13.2711 13.9562 13.5544 14.1755 13.8203 14.4149C12.8996 15.2371 11.784 15.8102 10.5795 16.0799C11.3182 15.6048 11.9784 15.0175 12.5364 14.3393ZM14.4312 8.49684C14.3634 7.37285 14.0711 6.27384 13.5714 5.26472C13.9484 5.01973 14.3052 4.74491 14.6382 4.44291C15.5757 5.59735 16.1336 7.01321 16.2357 8.49684H14.4312Z" fill="white"/>
</svg>
